<?xml version="1.0" standalone="no"?>
<!DOCTYPE svg PUBLIC "-//W3C//DTD SVG 20010904//EN"
 "http://www.w3.org/TR/2001/REC-SVG-20010904/DTD/svg10.dtd">
<svg version="1.0" xmlns="http://www.w3.org/2000/svg"
 width="262.000000pt" height="262.000000pt" viewBox="0 0 262.000000 262.000000"
 preserveAspectRatio="xMidYMid meet">
<metadata>
Created by potrace 1.11, written by Peter Selinger 2001-2013
</metadata>
<g transform="translate(0.000000,262.000000) scale(0.100000,-0.100000)"
fill="#000000" stroke="none">
<path d="M1140 2571 c-339 -51 -649 -232 -845 -496 -88 -117 -89 -106 17 -168
398 -233 430 -250 438 -236 73 124 239 243 395 284 71 19 222 21 302 5 72 -15
184 -61 234 -96 49 -33 159 -146 177 -180 l13 -25 32 18 c18 11 137 79 264
152 201 115 231 136 223 151 -25 47 -135 182 -196 242 -163 158 -358 265 -589
324 -80 20 -130 26 -255 29 -85 2 -180 0 -210 -4z"/>
<path d="M159 1869 c-88 -175 -135 -404 -125 -609 15 -334 140 -621 371 -854
212 -215 503 -349 807 -373 l78 -6 0 312 0 311 -43 0 c-106 0 -259 67 -378
165 -207 171 -281 505 -167 757 12 27 20 50 17 52 -4 4 -473 277 -511 297 -15
8 -23 -1 -49 -52z"/>
<path d="M2154 1778 l-262 -150 25 -57 c86 -193 65 -451 -49 -619 -117 -172
-285 -280 -473 -300 l-60 -7 -3 -307 -2 -308 32 0 c132 1 376 63 509 130 178
90 371 255 482 412 60 86 137 240 170 343 80 247 82 523 6 772 -23 74 -98 243
-108 242 -3 0 -124 -68 -267 -151z"/>
</g>
</svg>
